<svg width="20" height="20" viewBox="0 0 20 20" fill="none" xmlns="http://www.w3.org/2000/svg">
<path d="M15.7692 9.99997C15.7723 11.2084 15.2983 12.3692 14.4504 13.2302C14.3427 13.3369 14.1974 13.3969 14.0458 13.3974C13.8943 13.3978 13.7486 13.3385 13.6404 13.2324C13.5321 13.1263 13.47 12.9818 13.4674 12.8303C13.4648 12.6787 13.522 12.5322 13.6266 12.4225C14.2604 11.7756 14.6154 10.906 14.6154 10.0003C14.6154 9.09457 14.2604 8.22496 13.6266 7.57805C13.522 7.4683 13.4648 7.32182 13.4674 7.17026C13.47 7.01869 13.5321 6.87424 13.6404 6.76812C13.7486 6.662 13.8943 6.60275 14.0458 6.60317C14.1974 6.60358 14.3427 6.66364 14.4504 6.77036C15.2982 7.6312 15.7721 8.79176 15.7692 9.99997ZM15.5869 4.38651C15.4752 4.28185 15.3265 4.22585 15.1736 4.23083C15.0206 4.23581 14.8758 4.30135 14.7712 4.41305C14.6665 4.52475 14.6105 4.67344 14.6155 4.82643C14.6205 4.97942 14.686 5.12416 14.7977 5.22882C15.4666 5.83074 16.0015 6.56658 16.3676 7.38859C16.7338 8.21059 16.923 9.1004 16.923 10.0003C16.923 10.9001 16.7338 11.7899 16.3676 12.6119C16.0015 13.4339 15.4666 14.1698 14.7977 14.7717C14.6861 14.8764 14.6206 15.0211 14.6157 15.174C14.6108 15.3269 14.6668 15.4756 14.7715 15.5872C14.8761 15.6988 15.0208 15.7643 15.1738 15.7692C15.3267 15.7741 15.4753 15.7181 15.5869 15.6134C16.371 14.9036 16.9977 14.0374 17.4266 13.0706C17.8555 12.1038 18.0771 11.0579 18.0771 10.0003C18.0771 8.94261 17.8555 7.89668 17.4266 6.9299C16.9977 5.96311 16.371 5.09632 15.5869 4.38651ZM12.3077 4.18459V15.8154C12.3051 16.0253 12.2456 16.2307 12.1355 16.4096C12.0254 16.5884 11.8689 16.7341 11.6826 16.831C11.4964 16.928 11.2873 16.9726 11.0776 16.9602C10.868 16.9477 10.6656 16.8787 10.4921 16.7604L5.7804 13.4615H3.65386C3.19484 13.4615 2.75461 13.2792 2.43003 12.9546C2.10544 12.63 1.9231 12.1898 1.9231 11.7307V8.2692C1.9231 7.81017 2.10544 7.36995 2.43003 7.04536C2.75461 6.72078 3.19484 6.53843 3.65386 6.53843H5.77983L10.4921 3.23959C10.6657 3.12124 10.8681 3.05218 11.0778 3.03975C11.2875 3.02733 11.4966 3.07201 11.6829 3.16904C11.8692 3.26607 12.0257 3.41182 12.1357 3.59076C12.2458 3.76969 12.3052 3.97454 12.3077 4.18459ZM5.38463 7.69228H3.65386C3.50086 7.69228 3.35411 7.75306 3.24592 7.86126C3.13772 7.96945 3.07694 8.11619 3.07694 8.2692V11.7307C3.07694 11.8837 3.13772 12.0305 3.24592 12.1387C3.35411 12.2469 3.50086 12.3077 3.65386 12.3077H5.38463V7.69228ZM11.1573 15.8165L11.1539 4.18516L6.53848 7.41593V12.5846L11.1539 15.8154L11.1573 15.8165Z" fill="white"/>
</svg>
